<svg id="visual" viewBox="0 0 960 540" width="960" height="540" xmlns="http://www.w3.org/2000/svg" xmlns:xlink="http://www.w3.org/1999/xlink" version="1.1"><path d="M0 66L26.7 70.5C53.3 75 106.7 84 160 84C213.3 84 266.7 75 320 68.7C373.3 62.3 426.7 58.7 480 63.2C533.3 67.7 586.7 80.3 640 80.3C693.3 80.3 746.7 67.7 800 61.3C853.3 55 906.7 55 933.3 55L960 55L960 0L933.3 0C906.7 0 853.3 0 800 0C746.7 0 693.3 0 640 0C586.7 0 533.3 0 480 0C426.7 0 373.3 0 320 0C266.7 0 213.3 0 160 0C106.7 0 53.3 0 26.7 0L0 0Z" fill="#5d3e2b"></path><path d="M0 233L26.7 231.2C53.3 229.3 106.7 225.7 160 212.2C213.3 198.7 266.7 175.3 320 167.3C373.3 159.3 426.7 166.7 480 176.7C533.3 186.7 586.7 199.3 640 202C693.3 204.7 746.7 197.3 800 192.8C853.3 188.3 906.7 186.7 933.3 185.8L960 185L960 53L933.3 53C906.7 53 853.3 53 800 59.3C746.7 65.7 693.3 78.3 640 78.3C586.7 78.3 533.3 65.7 480 61.2C426.7 56.7 373.3 60.3 320 66.7C266.7 73 213.3 82 160 82C106.7 82 53.3 73 26.7 68.5L0 64Z" fill="#875e43"></path><path d="M0 374L26.7 371.2C53.3 368.3 106.7 362.7 160 341.8C213.3 321 266.7 285 320 265.3C373.3 245.7 426.7 242.3 480 245.2C533.3 248 586.7 257 640 270.5C693.3 284 746.7 302 800 298.3C853.3 294.7 906.7 269.3 933.3 256.7L960 244L960 183L933.3 183.8C906.7 184.7 853.3 186.3 800 190.8C746.7 195.3 693.3 202.7 640 200C586.7 197.3 533.3 184.7 480 174.7C426.7 164.7 373.3 157.3 320 165.3C266.7 173.3 213.3 196.7 160 210.2C106.7 223.7 53.3 227.3 26.7 229.2L0 231Z" fill="#a07b62"></path><path d="M0 465L26.7 466.8C53.3 468.7 106.7 472.3 160 468.8C213.3 465.3 266.7 454.7 320 448.3C373.3 442 426.7 440 480 440.8C533.3 441.7 586.7 445.3 640 450.8C693.3 456.3 746.7 463.7 800 468.2C853.3 472.7 906.7 474.3 933.3 475.2L960 476L960 242L933.3 254.7C906.7 267.3 853.3 292.7 800 296.3C746.7 300 693.3 282 640 268.5C586.7 255 533.3 246 480 243.2C426.7 240.3 373.3 243.7 320 263.3C266.7 283 213.3 319 160 339.8C106.7 360.7 53.3 366.3 26.7 369.2L0 372Z" fill="#875e43"></path><path d="M0 541L26.7 541C53.3 541 106.7 541 160 541C213.3 541 266.7 541 320 541C373.3 541 426.7 541 480 541C533.3 541 586.7 541 640 541C693.3 541 746.7 541 800 541C853.3 541 906.7 541 933.3 541L960 541L960 474L933.3 473.2C906.7 472.3 853.3 470.7 800 466.2C746.7 461.7 693.3 454.3 640 448.8C586.7 443.3 533.3 439.7 480 438.8C426.7 438 373.3 440 320 446.3C266.7 452.7 213.3 463.3 160 466.8C106.7 470.3 53.3 466.7 26.7 464.8L0 463Z" fill="#5d3e2b"></path></svg>